# xmcd
#
# Track frame offsets:
# 150
# 17112
# 44346
# 67735
# 87592
# 110468
# 115248
# 145316
# 166518
# 185612
# 204120
# 223012
# 248049
# 276407
# 297694
# 319505
#
# Disc length: 4554 seconds
#
# Revision: 0
# Processed by: cddbd v1.5.2PL0 Copyright (c) Steve Scherf et al.
# Submitted via: Audion 3.0.2 (http://www.panic.com/audion/)
#
DISCID=eb11c810
DTITLE=A Split Second - A Split Second
DYEAR=1900
DGENRE=
TTITLE0=Mambo Witch
TTITLE1=Colosium Crash pt 1
TTITLE2=Crash Course In Seduction
TTITLE3=Macho Chicken pt1
TTITLE4=Macho Chicken pt2
TTITLE5=Colosium Crash pt 2
TTITLE6=Paralox View
TTITLE7=Colosium Crash (original Version)
TTITLE8=w
TTITLE9=w
TTITLE10=w
TTITLE11=w
TTITLE12=Scandinavian Belly Dance
TTITLE13=On Command
TTITLE14=Bend My Body Armour
TTITLE15=untitled
EXTD=
EXTT0=
EXTT1=
EXTT2=
EXTT3=
EXTT4=
EXTT5=
EXTT6=
EXTT7=
EXTT8=
EXTT9=
EXTT10=
EXTT11=
EXTT12=
EXTT13=
EXTT14=
EXTT15=
PLAYORDER=
